<?xml version="1.0" encoding="UTF-8"?>
<svg id="Layer_1" data-name="Layer 1" xmlns="http://www.w3.org/2000/svg" viewBox="0 0 140.05 169.41">
  <defs>
    <style>
      .cls-1 {
        fill: #00d396;
      }
    </style>
  </defs>
  <path class="cls-1" d="m46.92,104.79l-2.9-3.28c-1.89-2.13-1.75-5.37.31-7.34h0c2.26-2.16,5.82-2.12,8.03.09l3.21,3.22c6.48,6.49,16.87,6.88,23.82.9l28.11-24.2,8.03-6.82c1.67-1.42,1.84-3.94.38-5.57l-39.78-44.55c-2-2.26-5.45-2.47-7.71-.47L23.65,56.39c-1.37,1.22-1.48,3.31-.24,4.66,2.34,2.53,5.76,6.24,8.02,8.67,1.3,1.4,3.46,1.54,4.92.32,2.98-2.48,8.14-6.77,13.53-11.25,11.3-9.4,27.83-8.91,38.57,1.13,3.42,3.2,5.76,7.74,4.08,10.96.08.02-3.52,4.96-8.95,1.16-2.85-1.99-5.03-8.21-16.26-8.06-1.17.02-6.64.74-13.9,7.26-10.98,9.86-26.3,23.32-32.12,28.42-1.31,1.15-1.42,3.13-.26,4.43l40.24,44.97c1.5,1.67,4.06,1.83,5.75.36l45.86-39.67c1.43-1.24,1.56-3.42.27-4.82l-8.12-8.79c-1.24-1.34-3.32-1.46-4.71-.26l-13.37,11.57c-11.82,10.23-29.67,9.04-40.03-2.66Z"/>
</svg>